<?xml version="1.0" encoding="UTF-8"?>
<svg version="1.1" xmlns="http://www.w3.org/2000/svg" width="500" height="500">
<path d="M0 0 C165 0 330 0 500 0 C500 165 500 330 500 500 C335 500 170 500 0 500 C0 335 0 170 0 0 Z " fill="#FF3131" transform="translate(0,0)"/>
<path d="M0 0 C164.67 0 329.34 0 499 0 C499 165 499 330 499 500 C334.33 500 169.66 500 0 500 C2.68889019 497.98333236 4.74571489 496.5021144 7.64921105 495.05004531 C8.36292903 494.6906828 9.07664702 494.33132029 9.81199282 493.961068 C10.59025103 493.57428007 11.36850924 493.18749213 12.17035103 492.78898335 C13.00504707 492.37018189 13.8397431 491.95138043 14.69973296 491.51988801 C17.51319306 490.10949195 20.32948314 488.70484216 23.14578247 487.30012512 C25.17738094 486.28317431 27.20880479 485.26587462 29.24006832 484.24825495 C34.83494081 481.44663048 40.43231106 478.65002868 46.03009534 475.85422766 C51.44252581 473.15003678 56.85308177 470.44210267 62.26369581 467.73428006 C74.01501007 461.85335286 85.76861384 455.97701336 97.5231911 450.10261133 C107.80792922 444.9627556 118.09192472 439.82141781 128.37517929 434.67859459 C129.0566967 434.3377595 129.73821411 433.99692441 130.44038356 433.64576099 C133.20669733 432.26229278 135.97300827 430.87881891 138.73931455 429.49533573 C164.69811549 416.51287505 190.65924899 403.53508505 216.62142581 390.55937699 C239.7041686 379.02275283 262.78483801 367.48199075 285.86376953 355.93774414 C311.77772201 342.97541774 337.69296042 330.0156681 363.61029041 317.06009597 C366.37101357 315.68005512 369.13173357 314.30000795 371.89245224 312.91995811 C372.57224143 312.5801426 373.25203062 312.24032708 373.95241948 311.89021412 C384.23390071 306.75061268 394.51439082 301.60903252 404.79440689 296.46650124 C416.47688985 290.62240661 428.16078832 284.78115306 439.84658732 278.94369177 C445.81432708 275.96250721 451.78136951 272.97994198 457.74671936 269.99397659 C463.19876741 267.26499061 468.65262239 264.53965324 474.10799371 261.81731697 C476.08975391 260.82756147 478.07082841 259.83643169 480.05117489 258.84385059 C482.72607944 257.5033935 485.40335565 256.16780163 488.08133125 254.83349323 C488.86427179 254.4396818 489.64721233 254.04587036 490.45387834 253.64012524 C495.77169919 251 495.77169919 251 498 251 C498 250.34 498 249.68 498 249 C497.18370444 248.75431436 496.36740887 248.50862871 495.52637708 248.25549805 C491.36228487 246.77295392 487.52130832 244.89709332 483.57796669 242.91203117 C482.74036377 242.49438356 481.90276085 242.07673594 481.03977603 241.64643234 C478.22468796 240.24154185 475.41249717 238.83094776 472.60025024 237.42037964 C470.56584088 236.40361092 468.5312558 235.38719374 466.49650991 234.37109864 C460.89868735 231.57442745 455.30337696 228.77276242 449.70845532 225.97029328 C444.29639503 223.26039449 438.8824571 220.55425429 433.46856012 217.84802753 C422.39385246 212.31198751 411.32101055 206.77222555 400.24922562 201.23034286 C389.28613272 195.7428802 378.32221476 190.25707165 367.35718918 184.77347183 C366.675519 184.432568 365.99384882 184.09166418 365.29152197 183.74042993 C361.82968538 182.0091733 358.367834 180.27794623 354.90597694 178.54673053 C330.38314516 166.28321401 305.86217041 154.01598866 281.34228516 141.74658203 C257.52095877 129.82673508 233.69879303 117.90856826 209.87548828 105.99267578 C209.14120193 105.62540108 208.40691558 105.25812638 207.65037812 104.87972214 C200.27639864 101.19141388 192.90240208 97.50313979 185.52839299 93.81489071 C170.50657176 86.30144386 155.48486456 78.78776901 140.46322632 71.2739563 C139.4272111 70.75574276 139.4272111 70.75574276 138.37026629 70.22706025 C92.24493354 47.1551926 46.12226792 24.07799372 0 1 C0 0.67 0 0.34 0 0 Z " fill="#FFFEFE" transform="translate(1,0)"/>
<path d="M0 0 C0.09704224 0.87676392 0.09704224 0.87676392 0.19604492 1.77124023 C1.70224169 15.20806687 3.4903534 28.57808325 5.5625 41.9375 C7.13612279 52.08696983 8.61122238 62.21943828 9.640625 72.44140625 C10.03075678 76.30455896 10.50637003 80.14883515 11 84 C8.61298157 85.37216028 6.21744946 86.72243979 3.8125 88.0625 C3.13896484 88.45244141 2.46542969 88.84238281 1.77148438 89.24414062 C1.11083984 89.60830078 0.45019531 89.97246094 -0.23046875 90.34765625 C-0.83270264 90.68804932 -1.43493652 91.02844238 -2.05541992 91.37915039 C-4.82251671 92.2626064 -6.21887311 91.88967385 -9 91 C-11.1200827 89.24371813 -12.98237653 87.52409351 -14.8918457 85.56225586 C-15.45828293 84.99640274 -16.02472015 84.43054962 -16.60832214 83.84754944 C-18.47378278 81.97930741 -20.32468423 80.09730955 -22.17578125 78.21484375 C-23.46813459 76.91502827 -24.7613753 75.6160945 -26.0554657 74.31800842 C-29.45587 70.90234595 -32.84409029 67.47484146 -36.22991943 64.04473877 C-39.68832396 60.54538599 -43.15810732 57.05735669 -46.62695312 53.56835938 C-53.42915879 46.72327953 -60.21854765 39.86563648 -67 33 C-64.09792858 30.78701715 -61.23068544 28.8964144 -58 27.1875 C-57.154375 26.72730469 -56.30875 26.26710938 -55.4375 25.79296875 C-53 25 -53 25 -51.1027832 25.7097168 C-48.69483424 27.18725195 -46.91005261 28.84759186 -44.91796875 30.8515625 C-44.15033203 31.62113281 -43.38269531 32.39070313 -42.59179688 33.18359375 C-41.40166992 34.39208984 -41.40166992 34.39208984 -40.1875 35.625 C-39.40568359 36.40746094 -38.62386719 37.18992187 -37.81835938 37.99609375 C-33.63453698 42.21137345 -29.63316522 46.51912749 -25.75756836 51.01757812 C-22.54949489 54.63607466 -19.1153328 58.02872836 -15.6875 61.4375 C-14.97271484 62.15615234 -14.25792969 62.87480469 -13.52148438 63.61523438 C-12.83763672 64.29779297 -12.15378906 64.98035156 -11.44921875 65.68359375 C-10.83393311 66.29775146 -10.21864746 66.91190918 -9.5847168 67.54467773 C-8.04624733 69.09170925 -8.04624733 69.09170925 -6 70 C-6.28895142 68.73748413 -6.28895142 68.73748413 -6.58374023 67.44946289 C-8.50561804 58.8102497 -9.92357538 50.21612473 -11.0625 41.4375 C-11.38570135 38.99856288 -11.70991374 36.55975951 -12.03515625 34.12109375 C-12.19145508 32.94168213 -12.34775391 31.76227051 -12.50878906 30.54711914 C-13.14462422 25.95564346 -13.87115382 21.38069269 -14.6184082 16.80615234 C-15.11532473 13.1519242 -15.14433794 9.68061736 -15 6 C-13.06629769 4.99267601 -11.12789694 3.99436712 -9.1875 3 C-8.10855469 2.443125 -7.02960938 1.88625 -5.91796875 1.3125 C-3 0 -3 0 0 0 Z " fill="#FFFBFB" transform="translate(229,281)"/>
<path d="M0 0 C8.49613252 5.78460087 12.54434445 14.450869 16.875 23.5 C17.46826349 24.71670116 18.06265755 25.93285174 18.65820312 27.1484375 C20.09580079 30.09375955 21.52182166 33.04409683 22.9375 36 C26.4025 35.505 26.4025 35.505 29.9375 35 C30.80408615 36.26239712 31.65542059 37.53527501 32.5 38.8125 C32.97566406 39.52019531 33.45132813 40.22789062 33.94140625 40.95703125 C34.9375 43 34.9375 43 33.9375 46 C28.70816237 49.55635031 23.33200783 52.02312125 16.9375 51 C14.7421875 49.46875 14.7421875 49.46875 12.9375 48 C12.7415625 48.65226562 12.545625 49.30453125 12.34375 49.9765625 C9.98689192 56.86427707 7.22944314 60.36465508 0.9375 64 C0.15375 64.45375 -0.63 64.9075 -1.4375 65.375 C-7.09484092 66.72198593 -12.18272889 66.93988556 -17.4375 64.3125 C-23.1233995 59.30349329 -26.05191382 54.77666729 -26.5625 47.1875 C-26.38652016 41.23058226 -24.23170382 38.107892 -20.0625 34 C-9.20196588 24 -9.20196588 24 -6.0625 24 C-5.85625 22.72125 -5.65 21.4425 -5.4375 20.125 C-5.32148438 19.40570313 -5.20546875 18.68640625 -5.0859375 17.9453125 C-5.07820313 17.30335938 -5.07046875 16.66140625 -5.0625 16 C-6.92250815 13.73660301 -6.92250815 13.73660301 -9.8125 13.625 C-15.21655177 14.24854444 -18.11531892 16.98673652 -21.75 20.875 C-23.93051565 23.82164278 -25.55473437 26.66704439 -27.0625 30 C-31.25610449 29.32902328 -34.46584352 27.1441606 -38.0625 25 C-36.90123231 17.31672891 -32.04024522 11.13785834 -26.0625 6.34765625 C-18.14802921 1.01466324 -9.51634362 -3.10737751 0 0 Z " fill="#FFFAFA" transform="translate(136.0625,354)"/>
<path d="M0 0 C5.58085583 4.29111161 10.84313086 10.51150487 12.80859375 17.390625 C12.78100586 19.26367188 12.78100586 19.26367188 11.80859375 21.390625 C9.46874607 22.88077139 7.26842075 24.09158725 4.78125 25.28125 C4.07713486 25.63072693 3.37301971 25.98020386 2.64756775 26.340271 C1.15864188 27.0761635 -0.3336105 27.8053579 -1.82885742 28.52832031 C-4.12287201 29.63770684 -6.4067193 30.76604805 -8.68945312 31.8984375 C-10.13616677 32.61049758 -11.58341513 33.32147249 -13.03125 34.03125 C-14.06100197 34.53739838 -14.06100197 34.53739838 -15.11155701 35.05377197 C-19.95586114 37.390625 -19.95586114 37.390625 -22.19140625 37.390625 C-19.96650744 41.84042262 -17.69693423 44.22129671 -13.19140625 46.390625 C-7.23967481 46.83860479 -2.74573011 45.29433116 1.80859375 41.390625 C4.43122575 37.86363714 4.91319492 35.86761917 5.80859375 31.390625 C10.09859375 31.720625 14.38859375 32.050625 18.80859375 32.390625 C19.37602126 39.65369711 18.49599622 43.76097114 13.80859375 49.390625 C7.4780274 56.3624695 -0.74982538 60.46142889 -10.16650391 61.03588867 C-18.11600785 61.19673828 -24.15512722 59.80091954 -30.19140625 54.390625 C-32.94011632 51.59862816 -35.11327566 48.70824972 -37.19140625 45.390625 C-37.95324219 44.18986328 -37.95324219 44.18986328 -38.73046875 42.96484375 C-43.04617724 35.02056471 -43.69386478 26.22730705 -42.19140625 17.390625 C-39.30306911 9.05120794 -33.42476616 4.21946819 -25.87890625 0.140625 C-17.68337245 -3.64192906 -8.03762685 -4.74570899 0 0 Z " fill="#FFFBFB" transform="translate(295.19140625,280.609375)"/>
<path d="M0 0 C7.06801164 6.33346326 10.70272204 16.52820061 14.54785156 24.96899414 C15.00095703 25.91774414 15.4540625 26.86649414 15.92089844 27.84399414 C16.51559937 29.13273437 16.51559937 29.13273437 17.12231445 30.44750977 C18.47421314 32.65416119 18.47421314 32.65416119 21.0847168 33.28735352 C23.73148179 33.60218472 23.73148179 33.60218472 26.60449219 32.43774414 C27.49872133 33.67406094 28.3693711 34.92745976 29.22949219 36.18774414 C29.71675781 36.88383789 30.20402344 37.57993164 30.70605469 38.29711914 C31.60449219 40.43774414 31.60449219 40.43774414 30.94042969 42.56274414 C28.77129416 45.60714488 26.05470537 47.20777783 22.60449219 48.43774414 C18.11123624 49.06583368 14.18155791 49.48465874 10.30371094 46.91040039 C9.74296875 46.42442383 9.18222656 45.93844727 8.60449219 45.43774414 C8.58386719 46.42774414 8.56324219 47.41774414 8.54199219 48.43774414 C7.74954729 53.71714055 4.59638315 57.09064137 0.60449219 60.43774414 C-4.8547412 63.729473 -10.04083302 65.18930431 -16.36425781 64.03149414 C-21.56790332 62.51042853 -24.43814001 59.79073346 -27.27050781 55.31274414 C-29.79194218 50.3596352 -30.38819759 45.90690291 -29.39550781 40.43774414 C-25.97927494 33.46862908 -19.75014585 28.3648478 -13.52050781 23.93774414 C-10.53065467 21.6902695 -8.85469628 20.3292224 -8.27050781 16.56274414 C-8.03634908 13.57080951 -8.03634908 13.57080951 -9.39550781 12.43774414 C-14.35263845 11.82897371 -17.39283387 11.98477504 -21.58300781 14.81274414 C-26.06915642 18.49368659 -28.22306895 23.15286884 -30.39550781 28.43774414 C-34.47655843 26.89431443 -37.81123564 24.93839915 -41.39550781 22.43774414 C-40.38202306 15.40591165 -36.27668757 9.98666264 -31.02441406 5.34008789 C-22.31546384 -1.05915634 -10.15924904 -6.69006008 0 0 Z " fill="#FFFAFA" transform="translate(380.3955078125,236.562255859375)"/>
<path d="M0 0 C3.78582408 7.52536951 7.56735909 15.05287174 11.34339142 22.58315849 C13.09676578 26.07945654 14.85162518 29.57499265 16.60986328 33.06884766 C18.30563982 36.43871824 19.9975349 39.81051086 21.6867218 43.18368912 C22.33284267 44.47222683 22.98037458 45.76005797 23.62931824 47.04717636 C24.53587429 48.84583501 25.43701756 50.64721874 26.33789062 52.44873047 C26.85307251 53.47465302 27.36825439 54.50057556 27.89904785 55.55758667 C29 58 29 58 29 60 C29.8878418 59.54560547 30.77568359 59.09121094 31.69042969 58.62304688 C34.98873768 56.9376645 38.29234817 55.26291509 41.59765625 53.59130859 C43.02685811 52.86665656 44.45461012 52.13913757 45.88085938 51.40869141 C47.9324403 50.35861342 49.98903232 49.31899183 52.046875 48.28125 C52.68244324 47.95314331 53.31801147 47.62503662 53.97283936 47.2869873 C57.33106036 45.60703176 59.15108513 45 63 45 C63.83819158 46.62249941 64.6704116 48.24808497 65.5 49.875 C66.19609375 51.23238281 66.19609375 51.23238281 66.90625 52.6171875 C68 55 68 55 68 57 C60.01345602 61.02716188 52.01229918 65.02433326 44 69 C42.44104004 69.77512939 42.44104004 69.77512939 40.85058594 70.56591797 C37.96838571 71.99301322 35.07944452 73.40527627 32.1875 74.8125 C31.30553955 75.25062012 30.4235791 75.68874023 29.51489258 76.14013672 C28.29129028 76.73012451 28.29129028 76.73012451 27.04296875 77.33203125 C25.97598755 77.85373901 25.97598755 77.85373901 24.88745117 78.38598633 C23 79 23 79 20 78 C18.68306936 75.83481869 17.55086305 73.73207811 16.4465332 71.46069336 C16.10472015 70.77779739 15.7629071 70.09490143 15.41073608 69.39131165 C14.2812079 67.12876679 13.16601895 64.85946208 12.05078125 62.58984375 C11.27123214 61.02142205 10.49079979 59.45343905 9.70951843 57.88587952 C7.65393125 53.75559941 5.61042551 49.61945411 3.56933594 45.48199463 C1.4850956 41.26239986 -0.61045633 37.04843257 -2.70507812 32.83398438 C-6.81450797 24.56147367 -10.91120299 16.28272593 -15 8 C-12.51318305 5.39529884 -10.18465142 3.90499105 -6.9375 2.3125 C-5.62072266 1.65701172 -5.62072266 1.65701172 -4.27734375 0.98828125 C-2 0 -2 0 0 0 Z " fill="#FFFAFA" transform="translate(45,372)"/>
<path d="M0 0 C2.95398758 2.95398758 4.25702817 5.15022125 6.09448242 8.84838867 C6.38752762 9.43404099 6.68057281 10.0196933 6.98249817 10.62309265 C7.94587383 12.55192736 8.90068811 14.48486705 9.85546875 16.41796875 C10.52326415 17.75915706 11.1915913 19.10008072 11.86042786 20.44075012 C13.61655751 23.96444575 15.36544893 27.49168586 17.112854 31.01971436 C18.89834974 34.62143254 20.69067209 38.21974951 22.48242188 41.81835938 C25.99496905 48.87559654 29.49987629 55.9365931 33 63 C35.64 62.67 38.28 62.34 41 62 C42.03613033 63.23734984 43.05347802 64.49044637 44.0625 65.75 C44.63097656 66.44609375 45.19945312 67.1421875 45.78515625 67.859375 C47 70 47 70 46.89453125 72.12890625 C45.79743713 74.42370138 44.86607615 75.02913785 42.625 76.1875 C42.01914062 76.51105469 41.41328125 76.83460938 40.7890625 77.16796875 C37.76854949 78.57270515 35.05094489 79.24706087 31.75 79.4375 C31.02296875 79.49808594 30.2959375 79.55867188 29.546875 79.62109375 C24.70560037 78.44047616 21.38280188 75.0283871 18.62207031 70.97875977 C17.24063965 68.54469602 15.98389272 66.07463588 14.75 63.5625 C14.26619873 62.60617676 13.78239746 61.64985352 13.28393555 60.66455078 C11.84845241 57.80847587 10.43124972 54.94406165 9.02166748 52.07513428 C7.89053123 49.77765524 6.7525275 47.48365195 5.61376953 45.18994141 C3.00119316 39.92424557 0.40476958 34.65071629 -2.1875 29.375 C-2.61703979 28.50376495 -3.04657959 27.63252991 -3.48913574 26.7348938 C-4.72177026 24.22995845 -5.94608226 21.72112994 -7.16796875 19.2109375 C-7.54034164 18.45657913 -7.91271454 17.70222076 -8.29637146 16.92500305 C-8.63838089 16.21804794 -8.98039032 15.51109283 -9.33276367 14.78271484 C-9.63188156 14.1703598 -9.93099945 13.55800476 -10.23918152 12.92709351 C-11 11 -11 11 -12 6 C-8.04 4.02 -4.08 2.04 0 0 Z " fill="#FFFAFA" transform="translate(307,236)"/>
<path d="M0 0 C4.08118785 3.30381873 5.7120939 7.98465727 6.4375 13.0625 C5.77437851 17.51488716 3.77934472 20.65015228 0.1875 23.375 C-3.58871579 24.4539188 -7.32477323 24.89345427 -10.875 23 C-12.71976666 19.72041483 -13.5726914 16.70204081 -13 13 C-11.04899932 10.20547844 -8.60335811 8.17475647 -6 6 C-5.03071537 5.05274456 -4.07073451 4.09576866 -3.125 3.125 C-2.08333333 2.08333333 -1.04166667 1.04166667 0 0 Z " fill="#FF3838" transform="translate(137,382)"/>
<path d="M0 0 C3.06760872 2.7887352 4.75516035 5.24911177 5.3359375 9.40234375 C5.40130442 13.64465711 5.4269368 16.26810834 3.25 20 C0.30966747 22.61362892 -1.60705849 23.79105877 -5.5 24.375 C-8 24 -8 24 -10.25 22.4375 C-12.61502637 19.14335613 -13.06992066 17.05539825 -13 13 C-9.6259118 7.77560537 -4.73989873 3.97539893 0 0 Z " fill="#FF3636" transform="translate(378,263)"/>
<path d="M0 0 C4.61572147 2.39662461 6.30315525 4.17359724 8 9 C4.73408178 10.67643038 1.46150893 12.33943344 -1.8125 14 C-2.74126953 14.47695313 -3.67003906 14.95390625 -4.62695312 15.4453125 C-5.51962891 15.89648438 -6.41230469 16.34765625 -7.33203125 16.8125 C-8.15421143 17.23144531 -8.9763916 17.65039062 -9.82348633 18.08203125 C-12 19 -12 19 -15 19 C-16.61705207 15.76589587 -16.57943347 12.49613229 -16 9 C-11.9915658 2.93008535 -7.53053815 -1.07579116 0 0 Z " fill="#FF3939" transform="translate(283,290)"/>
</svg>
